<svg xmlns="http://www.w3.org/2000/svg" viewBox="0 0 32 32" width="32" height="32">
  <defs>
    <clipPath id="rr">
      <rect width="32" height="32" rx="7"/>
    </clipPath>
    <clipPath id="top">
      <polygon points="0,0 32,0 32,17.5 0,14.5"/>
    </clipPath>
    <clipPath id="bot">
      <polygon points="0,14.5 32,17.5 32,32 0,32"/>
    </clipPath>
  </defs>

  <g clip-path="url(#rr)">
    <rect width="32" height="32" fill="#f59e0b"/>
    <g clip-path="url(#top)">
      <rect width="32" height="32" fill="#f59e0b"/>
    </g>
    <g clip-path="url(#bot)">
      <rect width="32" height="32" fill="#0f172a"/>
    </g>

    <path fill-rule="evenodd" fill="white" d="
      M 8 5 L 19.5 5 C 23 5 25.5 7.5 25.5 10.5
      C 25.5 13 24 14.8 22 15.8
      C 24.5 16.8 26 19 26 21.8
      C 26 25.5 23.5 27.5 20 27.5
      L 8 27.5 Z

      M 13 9.5 L 13 13.5 L 18 13.5
      C 19.8 13.5 21 12.5 21 11.5
      C 21 10.5 19.8 9.5 18 9.5 Z

      M 13 17.5 L 13 24 L 19 24
      C 21 24 22.2 22.5 22.2 20.8
      C 22.2 19 21 17.5 19 17.5 Z
    "/>
  </g>
</svg>
